<svg t="1738744242353" class="icon" viewBox="0 0 1024 1024" version="1.1" xmlns="http://www.w3.org/2000/svg" p-id="5158" width="200" height="200"><path d="M963.6 858.2L474.8 369.5c97.3-92.2 198.4-172.7 300.3-240.9 35.5-23.8 19.1-79.8-23.6-79.1C611.3 52 471.8 96.2 353.3 182.4c-43.5-26.7-101.2-21.2-138.8 16.5s-43.2 95.3-16.5 138.8C111.8 456.3 67.6 595.8 65.1 735.9c-0.7 42.7 55.3 59.1 79.1 23.6 68.2-101.9 148.7-203.1 240.9-300.3L873.9 948c0.6 0.6 1.6 0.6 2.2 0l87.5-87.5c0.6-0.7 0.6-1.6 0-2.3z" p-id="5159" fill="#bfbfbf"></path></svg>
